<svg width="36.3" height="25" viewBox="0 0 1452 1000" fill="none" xmlns="http://www.w3.org/2000/svg">
<path d="M43.5062 180.746C43.5062 180.746 15.3673 105.34 43.5062 75.2456C68.7633 48.2333 92.0061 46.7456 137.006 60.2456C242.395 91.8622 285.363 96.3937 382.006 95.2456C488.813 93.9768 564.405 65.0713 651.006 45.7456C717.625 30.8793 691.737 242.528 686.006 304.746C675.506 418.746 631.948 723.246 627.506 743.746C613.185 809.839 598.363 869.942 546.006 912.746C484.182 963.288 338.506 969.746 268.006 940.746C231.506 925.731 149.006 876.746 42.0061 752.246" stroke="white" stroke-width="72" stroke-linecap="round"/>
<path d="M40.5062 163.746C40.5062 163.746 12.3673 88.34 40.5062 58.2456C65.7633 31.2333 89.0061 29.7456 134.006 43.2456C239.395 74.8622 282.363 79.3937 379.006 78.2456C485.813 76.9768 561.405 48.0713 648.006 28.7456C714.625 13.8793 688.737 225.528 683.006 287.746C672.506 401.746 628.948 706.246 624.506 726.746C610.185 792.839 595.363 852.942 543.006 895.746C481.182 946.288 335.506 952.746 265.006 923.746C228.506 908.731 146.006 859.746 39.0061 735.246" stroke="url(#paint0_angular)" stroke-opacity="0.56" stroke-width="72" stroke-linecap="round"/>
<path d="M696 957.5C852.5 727.432 880.355 586.404 872.526 523.256C870.213 504.602 853.942 492.748 835.558 488.826L818.017 485.084C801.009 481.455 783.597 489.18 774.874 504.225V504.225C763.853 523.232 770.143 547.566 788.993 558.853L816.31 575.208C827.559 581.943 840.425 585.5 853.536 585.5H949.496C1002.55 585.5 1038.34 639.713 1017.5 688.5V688.5L987.213 772.504C973.469 810.623 984.087 853.267 1014.1 880.49L1058.16 920.457C1083.58 943.516 1119.05 951.927 1152.12 942.738L1291.84 903.911C1320.17 896.039 1343.59 876.101 1355.89 849.397L1420.83 708.412C1426.87 695.293 1430 681.021 1430 666.577V626" stroke="white" stroke-width="64" stroke-linecap="round"/>
<path d="M690 951.5C846.5 721.432 874.355 580.404 866.526 517.256C864.213 498.602 847.942 486.748 829.558 482.826L812.017 479.084C795.009 475.455 777.597 483.18 768.874 498.225V498.225C757.853 517.232 764.143 541.566 782.993 552.853L810.31 569.208C821.559 575.943 834.425 579.5 847.536 579.5H943.496C996.548 579.5 1032.34 633.713 1011.5 682.5V682.5L981.213 766.504C967.469 804.623 978.087 847.267 1008.1 874.49L1052.16 914.457C1077.58 937.516 1113.05 945.927 1146.12 936.738L1285.84 897.911C1314.17 890.039 1337.59 870.101 1349.89 843.397L1414.83 702.412C1420.87 689.293 1424 675.021 1424 660.577V620" stroke="url(#paint1_linear)" stroke-opacity="0.56" stroke-width="64" stroke-linecap="round"/>
<defs>
<radialGradient id="paint0_angular" cx="0" cy="0" r="1" gradientUnits="userSpaceOnUse" gradientTransform="translate(317 506.5) rotate(-88.2472) scale(656.737 476.176)">
<stop stop-color="#00B2FF"/>
<stop offset="0.260417" stop-color="#0047FF"/>
<stop offset="0.5" stop-color="#7000FF"/>
<stop offset="0.739583" stop-color="#0047FF"/>
<stop offset="1" stop-color="#00B2FF"/>
</radialGradient>
<linearGradient id="paint1_linear" x1="817" y1="648.5" x2="1329.5" y2="904.5" gradientUnits="userSpaceOnUse">
<stop stop-color="#00B2FF"/>
<stop offset="1" stop-color="#0500FF"/>
</linearGradient>
</defs>
        </svg>